 <svg  version="1.0" xmlns="http://www.w3.org/2000/svg"  width="300.000000pt" height="117.000000pt" viewBox="0 0 300.000000 117.000000"  preserveAspectRatio="xMidYMid meet">  <g transform="translate(0.000000,117.000000) scale(0.100000,-0.100000)" fill="#130869" stroke="none"> <path d="M610 882 c0 -5 16 -16 35 -25 53 -25 124 -95 153 -152 22 -42 27 -63 27 -130 0 -67 -5 -88 -27 -130 -35 -67 -90 -118 -163 -151 -49 -23 -74 -28 -138 -28 -84 0 -84 -10 0 -19 70 -8 155 15 219 58 189 129 192 400 7 528 -45 31 -113 61 -113 49z"/> <path d="M798 833 c106 -100 147 -231 113 -359 -17 -65 -78 -149 -147 -203 -49 -38 -19 -32 37 8 100 71 149 166 149 286 0 126 -51 224 -155 295 -66 45 -65 36 3 -27z"/> <path d="M860 888 c0 -4 22 -36 49 -72 125 -165 125 -338 -1 -503 -53 -69 -36 -72 25 -4 143 158 135 380 -19 532 -30 29 -54 50 -54 47z"/> <path d="M490 848 c127 -40 231 -132 216 -192 -8 -32 -51 -83 -87 -101 -42 -22 -137 -19 -176 5 -40 24 -41 19 -7 -25 55 -72 176 -98 245 -52 69 46 87 133 45 222 -40 87 -143 152 -253 161 l-58 5 75 -23z m215 -304 c-27 -42 -72 -63 -127 -59 -56 3 -93 25 -42 25 54 0 101 20 140 59 34 33 39 36 42 19 2 -10 -4 -30 -13 -44z"/> <path d="M1197 844 c-4 -4 -7 -130 -7 -281 l0 -273 186 0 185 0 -3 38 -3 37 -143 0 -142 0 0 84 0 83 85 -3 85 -4 0 38 0 37 -85 0 -85 0 0 85 0 85 146 0 145 0 -3 38 -3 37 -176 3 c-96 1 -178 -1 -182 -4z m328 -34 c-4 -6 -55 -10 -126 -10 -153 0 -151 2 -147 -122 l3 -93 55 -3 c30 -1 66 -5 80 -9 l25 -6 -30 -7 c-16 -4 -48 -8 -70 -9 -23 0 -46 -6 -53 -13 -16 -16 -16 -170 0 -186 8 -8 53 -12 135 -12 68 0 123 -4 123 -9 0 -9 -262 -20 -287 -13 -10 3 -13 62 -13 252 l0 248 156 1 c104 1 153 -2 149 -9z"/> <path d="M2004 819 c3 -17 6 -143 6 -280 l0 -249 35 0 35 0 0 119 0 119 34 21 c39 24 94 27 122 7 16 -12 20 -31 24 -138 l5 -123 38 -3 38 -3 -3 129 c-4 138 -12 164 -63 198 -50 33 -106 29 -187 -14 -4 -2 -9 52 -10 120 l-3 123 -39 3 c-39 3 -39 3 -32 -29z m46 -101 c1 -104 11 -138 40 -138 9 0 5 -9 -9 -23 -18 -21 -22 -38 -26 -123 -2 -54 -4 -103 -5 -109 0 -5 -4 -4 -8 3 -12 19 -14 492 -2 492 6 0 10 -41 10 -102z m211 -122 c34 -15 49 -61 49 -158 0 -51 -5 -100 -10 -108 -11 -18 -11 -24 -13 112 -1 58 -4 105 -6 102 -2 -2 -20 10 -39 27 -26 23 -42 30 -63 27 -16 -3 -29 0 -29 5 0 9 83 4 111 -7z m-126 -6 c-3 -5 -12 -10 -18 -10 -7 0 -6 4 3 10 19 12 23 12 15 0z"/> <path d="M1735 621 c-48 -22 -69 -44 -90 -94 -63 -151 103 -296 246 -215 43 24 48 37 21 61 -17 16 -21 15 -58 -3 -62 -33 -125 -6 -146 61 -15 53 7 102 58 126 33 16 38 16 82 0 45 -16 48 -16 66 2 23 24 15 38 -38 62 -52 23 -90 24 -141 0z m137 -29 c15 -15 0 -16 -37 -2 -31 12 -98 -13 -129 -48 -25 -29 -32 -101 -13 -139 21 -39 41 -56 91 -70 l41 -13 -48 4 c-59 4 -107 48 -107 96 0 17 -5 30 -12 30 -10 0 -10 2 0 9 8 4 13 14 12 22 -1 8 -2 21 -1 30 1 19 59 84 81 91 29 9 109 3 122 -10z m3 -262 c-3 -5 -15 -10 -26 -10 -10 0 -19 5 -19 10 0 6 12 10 26 10 14 0 23 -4 19 -10z"/> <path d="M2523 629 c-18 -5 -48 -25 -68 -44 -109 -109 -32 -295 122 -295 64 0 99 16 141 64 73 83 45 212 -58 264 -47 23 -84 26 -137 11z m135 -38 c2 -6 9 -11 16 -11 36 0 63 -121 42 -188 -9 -28 -73 -72 -104 -72 -30 0 -20 16 15 25 54 13 94 90 79 149 -25 101 -164 128 -226 44 -38 -50 -34 -118 9 -162 18 -19 47 -37 64 -41 24 -6 27 -9 14 -12 -67 -17 -137 56 -137 142 0 40 28 105 46 105 6 0 17 7 24 15 7 8 16 12 21 9 5 -3 9 -1 9 5 0 14 123 6 128 -8z m-30 -35 c26 -13 42 -37 56 -79 8 -25 -17 -81 -45 -101 -38 -27 -96 -21 -130 13 -82 82 17 220 119 167z"/> </g> </svg> 