<?xml version="1.0" standalone="no"?>
<!DOCTYPE svg PUBLIC "-//W3C//DTD SVG 20010904//EN"
 "http://www.w3.org/TR/2001/REC-SVG-20010904/DTD/svg10.dtd">
<svg version="1.0" xmlns="http://www.w3.org/2000/svg"
 width="181.000000pt" height="206.000000pt" viewBox="0 0 181.000000 206.000000"
 preserveAspectRatio="xMidYMid meet">
<metadata>
Created by potrace 1.10, written by Peter Selinger 2001-2011
</metadata>
<g transform="translate(0.000000,206.000000) scale(0.100000,-0.100000)"
fill="#162456" stroke="none">
<path d="M586 1901 c5 -4 45 -28 89 -51 281 -151 456 -380 510 -665 19 -102
19 -179 0 -280 -34 -176 -106 -314 -234 -449 -135 -140 -274 -216 -504 -271
-71 -18 -293 -24 -355 -11 -18 4 -32 4 -32 -2 0 -14 152 -43 263 -49 202 -11
412 56 583 187 240 184 374 447 374 731 0 349 -198 653 -530 814 -84 41 -192
71 -164 46z"/>
<path d="M970 1903 c0 -5 22 -24 47 -43 111 -83 237 -225 307 -343 54 -92 69
-125 103 -232 24 -73 26 -96 27 -260 1 -199 -8 -244 -80 -402 -64 -142 -202
-311 -343 -423 -45 -34 -81 -67 -81 -73 0 -5 10 -3 23 5 12 8 54 33 92 56 329
191 506 547 468 936 -12 121 -27 179 -75 292 -75 179 -240 361 -419 462 -59
33 -69 37 -69 25z"/>
<path d="M1315 1858 c22 -23 42 -45 45 -48 47 -47 152 -195 192 -268 172 -318
182 -673 29 -982 -52 -103 -156 -253 -259 -370 -43 -48 -22 -50 36 -4 210 170
344 390 398 654 20 102 15 307 -10 415 -55 231 -185 435 -379 597 -74 61 -107
65 -52 6z"/>
<path d="M60 1870 c0 -3 44 -16 98 -28 245 -60 419 -149 550 -282 69 -70 152
-206 152 -248 0 -41 -67 -165 -119 -219 -95 -99 -207 -150 -351 -160 -93 -6
-216 22 -297 67 -30 17 -57 29 -60 26 -10 -10 49 -90 111 -151 78 -76 180
-128 299 -151 80 -16 93 -16 168 -1 130 25 223 85 287 185 96 152 96 325 -1
522 -66 134 -208 266 -372 344 -91 43 -94 44 -181 66 -76 19 -284 42 -284 30z"/>
</g>
</svg>
