 <svg  version="1.0" xmlns="http://www.w3.org/2000/svg"  width="300.000000pt" height="117.000000pt" viewBox="0 0 300.000000 117.000000"  preserveAspectRatio="xMidYMid meet">  <g transform="translate(0.000000,117.000000) scale(0.100000,-0.100000)" fill="#162456" stroke="none"> <path d="M677 841 c97 -66 153 -162 153 -265 0 -86 -26 -143 -94 -212 -66 -66 -120 -91 -226 -104 l-55 -7 75 -2 c64 -1 84 3 135 28 72 34 136 98 167 166 35 76 33 191 -5 267 -31 63 -86 116 -153 147 -64 31 -63 26 3 -18z"/> <path d="M816 815 c65 -67 96 -129 109 -217 15 -98 -45 -233 -139 -314 -39 -34 -39 -35 -8 -17 57 31 127 113 150 176 24 63 29 157 12 217 -17 61 -73 143 -125 182 -27 21 -52 38 -55 38 -3 0 22 -29 56 -65z"/> <path d="M898 834 c87 -104 123 -221 102 -328 -14 -72 -38 -122 -92 -194 -35 -47 -37 -52 -13 -36 37 24 101 117 121 176 24 74 16 196 -18 269 -27 58 -86 132 -121 151 -12 6 -4 -9 21 -38z"/> <path d="M492 851 c106 -34 199 -106 214 -165 12 -51 -54 -127 -128 -147 -43 -11 -118 1 -145 23 -30 24 -10 -11 25 -44 43 -43 78 -58 133 -58 97 0 154 57 154 155 0 76 -36 141 -102 186 -47 33 -147 69 -186 68 -12 0 4 -8 35 -18z"/> <path d="M1195 827 c-3 -7 -4 -129 -3 -272 l3 -260 180 0 180 0 3 32 3 32 -143 3 -143 3 -3 83 -3 82 86 0 85 0 0 35 0 35 -85 0 -85 0 0 85 0 84 143 3 142 3 3 33 3 32 -181 0 c-136 0 -182 -3 -185 -13z"/> <path d="M2004 824 c3 -9 6 -132 6 -275 l0 -259 35 0 35 0 0 120 0 120 33 20 c38 23 95 26 123 6 16 -12 20 -31 24 -138 l5 -123 35 -3 36 -3 -4 128 c-3 85 -9 138 -19 156 -30 59 -145 83 -200 42 -10 -8 -21 -15 -25 -15 -5 0 -8 54 -8 120 l0 120 -41 0 c-33 0 -40 -3 -35 -16z"/> <path d="M1751 628 c-19 -7 -49 -26 -67 -44 -110 -111 -32 -294 126 -294 42 0 88 18 108 43 10 11 8 19 -7 38 -18 22 -20 23 -38 7 -70 -63 -185 5 -169 100 11 73 85 110 153 78 27 -13 38 -14 49 -5 55 45 -67 106 -155 77z"/> <path d="M2550 634 c-67 -23 -93 -41 -116 -79 -28 -49 -33 -129 -9 -175 48 -94 189 -119 269 -49 114 100 61 282 -89 302 -22 3 -47 4 -55 1z m81 -80 c18 -9 37 -31 45 -51 45 -106 -86 -195 -167 -114 -23 24 -29 38 -29 73 1 86 75 132 151 92z"/> </g> </svg> 